<svg width="28" height="4" viewBox="0 0 28 4" fill="none" xmlns="http://www.w3.org/2000/svg">
<g id="Frame 20">
<path id="Vector" d="M0.0689439 1.92099C0.504453 1.51034 1.03452 1.21676 1.61077 1.06704C2.18702 0.917314 2.7911 0.916225 3.36788 1.06385C4.22336 1.25491 5.05775 1.53249 5.85852 1.89242C6.3523 2.10785 6.85747 2.29545 7.37171 2.45433C7.65125 2.54974 7.94198 2.60737 8.23639 2.62575C9.17625 2.93051 9.5804 2.39718 9.5898 1.03528C9.52358 1.0324 9.46002 1.00809 9.40842 0.965937C9.35683 0.92378 9.31992 0.865991 9.3031 0.801027C9.28629 0.736063 9.29044 0.667351 9.31498 0.60496C9.33951 0.542568 9.38313 0.489778 9.43943 0.454334C11.3192 -0.555184 12.1462 2.10194 10.8022 3.31146C10.3539 3.62998 9.83922 3.83949 9.29805 3.92373C8.75689 4.00797 8.20384 3.96465 7.68187 3.79717C5.11603 3.19717 3.11411 1.05433 0.313304 2.27338C0.115932 2.35909 -0.11903 2.12099 0.0689439 1.94956L0.0689439 1.92099Z" fill="#F8CA95"/>
<path id="Vector_2" d="M27.3253 1.92099C26.8898 1.51034 26.3597 1.21676 25.7834 1.06704C25.2072 0.917314 24.6031 0.916224 24.0263 1.06385C23.1735 1.25351 22.3421 1.53114 21.5451 1.89242C21.0481 2.10787 20.5398 2.29547 20.0225 2.45433C19.743 2.54974 19.4522 2.60737 19.1578 2.62575C18.265 2.93051 17.8138 2.39718 17.8044 1.03528C17.8706 1.0324 17.9342 1.00809 17.9858 0.965937C18.0374 0.92378 18.0743 0.865991 18.0911 0.801027C18.1079 0.736063 18.1038 0.667351 18.0792 0.60496C18.0547 0.542569 18.0111 0.489779 17.9548 0.454335C16.1221 -0.555184 15.248 2.10195 16.592 3.31146C17.0403 3.62998 17.555 3.83949 18.0962 3.92373C18.6373 4.00797 19.1904 3.96465 19.7123 3.79717C22.2782 3.19717 24.2801 1.05433 27.0809 2.27338C27.2783 2.35909 27.5133 2.12098 27.3253 1.94956L27.3253 1.92099Z" fill="#F8CA95"/>
<path id="Vector_3" d="M11.8645 0.863864C12.0502 1.1069 12.2839 1.30802 12.5506 1.45435C12.7198 1.57816 12.8984 1.71148 13.077 1.81624C12.721 2.11386 12.3821 2.43184 12.0619 2.76862C11.9021 2.94004 12.0619 3.27338 12.3063 3.18766C12.7053 3.05238 13.0847 2.86339 13.4341 2.62577C13.4341 2.99719 13.5375 3.38766 13.5845 3.74004C13.596 3.80095 13.6281 3.85589 13.6753 3.89541C13.7225 3.93492 13.7818 3.95654 13.843 3.95654C13.9042 3.95654 13.9634 3.93492 14.0106 3.89541C14.0578 3.85589 14.0899 3.80095 14.1014 3.74004C14.1014 3.36862 14.1954 2.96863 14.2048 2.58768C14.4391 2.79583 14.7059 2.96317 14.9943 3.0829C15.0634 3.10299 15.1372 3.09887 15.2037 3.07122C15.2702 3.04357 15.3256 2.99401 15.3608 2.93053C15.3935 2.86843 15.4065 2.79764 15.3981 2.72778C15.3897 2.65793 15.3603 2.59239 15.3139 2.54006C15.0977 2.27339 14.8909 2.00672 14.7029 1.73053C14.9734 1.33799 15.1797 0.903865 15.3139 0.444831C15.4548 0.0257853 14.8815 -0.155169 14.6559 0.159115C14.4304 0.473399 14.092 0.835304 13.8195 1.18768L13.8195 1.25434C13.5679 1.04588 13.2857 0.878763 12.983 0.759102C12.719 0.600595 12.4237 0.503052 12.1183 0.473401C12.0703 0.465912 12.0211 0.472543 11.9767 0.492525C11.9323 0.512508 11.8945 0.545003 11.8678 0.586127C11.841 0.62725 11.8265 0.675279 11.8259 0.724516C11.8254 0.773752 11.8388 0.822114 11.8645 0.863864Z" fill="#F8CA95"/>
</g>
</svg>
